<?xml version="1.0" encoding="UTF-8"?>
<svg width="121px" height="107px" viewBox="0 0 121 107" version="1.1" xmlns="http://www.w3.org/2000/svg" xmlns:xlink="http://www.w3.org/1999/xlink">
    <title>data-empty</title>
    <defs>
        <polygon id="path-1" points="0 0.158315058 5.93825926 0.158315058 5.93825926 12.3614052 0 12.3614052"></polygon>
        <polygon id="path-3" points="0.0128957182 0.158315058 5.95100899 0.158315058 5.95100899 12.3614052 0.0128957182 12.3614052"></polygon>
        <polygon id="path-5" points="0.0187724827 0.0252220459 4.48815224 0.0252220459 4.48815224 4.56542418 0.0187724827 4.56542418"></polygon>
        <polygon id="path-7" points="0.0110577169 0.0387572625 4.8879915 0.0387572625 4.8879915 4.93746792 0.0110577169 4.93746792"></polygon>
        <polygon id="path-9" points="0 0 29.5693899 0 29.5693899 29.5993238 0 29.5993238"></polygon>
    </defs>
    <g id="kubeoperator" stroke="none" stroke-width="1" fill="none" fill-rule="evenodd">
        <g id="集群详情-概览-未执行命令" transform="translate(-765.000000, -564.000000)">
            <g id="data-empty" transform="translate(765.000000, 564.000000)">
                <g id="编组-6" transform="translate(0.354201, 0.594825)">
                    <g id="编组">
                        <polygon id="Fill-1" fill="#D9DAE0" points="12.8217794 0.139250411 7.78843923 15.7352964 10.8315202 15.7352964 15.8653392 0.139250411"></polygon>
                        <g transform="translate(0.000000, 1.810255)">
                            <g>
                                <mask id="mask-2" fill="white">
                                    <use xlink:href="#path-1"></use>
                                </mask>
                                <g id="Clip-3"></g>
                                <path d="M5.6457941,0.158315058 L2.36200895,0.158315058 L0.292367831,0.158315058 C0.13080638,0.158315058 -9.73261753e-05,0.286959932 -9.73261753e-05,0.445733532 L-9.73261753e-05,2.4796616 L-9.73261753e-05,10.0400587 L-9.73261753e-05,12.0739868 C-9.73261753e-05,12.2327604 0.13080638,12.3614052 0.292367831,12.3614052 L2.36200895,12.3614052 L5.6457941,12.3614052 C5.80735555,12.3614052 5.93825926,12.2327604 5.93825926,12.0739868 L5.93825926,10.3274772 C5.93825926,10.1687036 5.80735555,10.0400587 5.6457941,10.0400587 L2.36200895,10.0400587 L2.36200895,2.4796616 L5.6457941,2.4796616 C5.80735555,2.4796616 5.93825926,2.35101673 5.93825926,2.19272136 L5.93825926,0.445733532 C5.93825926,0.286959932 5.80735555,0.158315058 5.6457941,0.158315058" id="Fill-2" fill="#F2F2F6" mask="url(#mask-2)"></path>
                            </g>
                            <g transform="translate(17.908016, 0.000000)">
                                <mask id="mask-4" fill="white">
                                    <use xlink:href="#path-3"></use>
                                </mask>
                                <g id="Clip-5"></g>
                                <path d="M5.65878715,0.158315058 L3.58914603,0.158315058 L0.305360875,0.158315058 C0.143799424,0.158315058 0.0128957182,0.286959932 0.0128957182,0.445733532 L0.0128957182,2.19272136 C0.0128957182,2.35101673 0.143799424,2.4796616 0.305360875,2.4796616 L3.58914603,2.4796616 L3.58914603,10.0400587 L0.305360875,10.0400587 C0.143799424,10.0400587 0.0128957182,10.1687036 0.0128957182,10.3274772 L0.0128957182,12.0739868 C0.0128957182,12.2327604 0.143799424,12.3614052 0.305360875,12.3614052 L3.58914603,12.3614052 L5.65878715,12.3614052 C5.8203486,12.3614052 5.9512523,12.2327604 5.9512523,12.0739868 L5.9512523,10.3274772 L5.9512523,2.19272136 L5.9512523,0.445733532 C5.9512523,0.286959932 5.8203486,0.158315058 5.65878715,0.158315058" id="Fill-4" fill="#F2F2F6" mask="url(#mask-4)"></path>
                            </g>
                        </g>
                    </g>
                    <g id="编组" transform="translate(97.786327, 83.502003) scale(-1, 1) rotate(45.000000) translate(-97.786327, -83.502003) translate(74.286327, 76.002003)">
                        <g transform="translate(14.746363, 9.130848)">
                            <mask id="mask-6" fill="white">
                                <use xlink:href="#path-5"></use>
                            </mask>
                            <g id="Clip-2"></g>
                            <path d="M4.47630923,2.52698057 C4.35034396,3.7740218 3.25309931,4.68143644 2.02553211,4.55347287 C0.797568781,4.42550929 -0.095675508,3.31085805 0.0306858792,2.06341443 C0.156651149,0.816373202 1.2538958,-0.0910414355 2.481463,0.0373245376 C3.70903021,0.16528811 4.6022745,1.27993935 4.47630923,2.52698057" id="Fill-1" fill="#F2F2F6" mask="url(#mask-6)"></path>
                        </g>
                        <path d="M33.5769994,3.3456895 C33.450016,4.5996364 32.3439025,5.51207598 31.1064131,5.38340379 C29.8685244,5.2547316 28.9680602,4.13350319 29.0950436,2.87955629 C29.2224264,1.62560939 30.3285398,0.713169816 31.5660292,0.842246635 C32.8035186,0.970514194 33.7039828,2.09174261 33.5769994,3.3456895" id="Fill-3" fill="#F2F2F6"></path>
                        <path d="M4.49385112,2.51575528 C4.36698496,3.7698294 3.26049138,4.68188331 2.02271889,4.5533463 C0.785314142,4.42443672 -0.115251754,3.30374303 0.011982137,2.0496689 C0.1388483,0.795594781 1.24534188,-0.116459126 2.48274664,0.0120778828 C3.72051912,0.140614892 4.62108501,1.26168115 4.49385112,2.51575528" id="Fill-5" fill="#F2F2F6"></path>
                        <g transform="translate(41.371741, 5.810540)">
                            <mask id="mask-8" fill="white">
                                <use xlink:href="#path-7"></use>
                            </mask>
                            <g id="Clip-8"></g>
                            <path d="M4.8753347,2.73816847 C4.73762238,4.08379289 3.54040078,5.06242883 2.20069071,4.92450833 C0.860980638,4.78618805 -0.11335396,3.58368114 0.0239603524,2.23805672 C0.161672677,0.892432295 1.35889427,-0.0862036481 2.69860435,0.0517168586 C4.0379164,0.190037135 5.01264901,1.39254405 4.8753347,2.73816847" id="Fill-7" fill="#F2F2F6" mask="url(#mask-8)"></path>
                        </g>
                        <polygon id="Fill-9" fill="#F2F2F6" points="17.030154 11.6210797 16.9752209 11.5860689 2.45772718 2.26464009 2.57327613 2.07519281 17.0362156 11.3619999 31.6851699 2.94501648 31.7332837 2.96446692 44.2390893 8.0032979 44.159531 8.21063959 31.7014604 3.19125905"></polygon>
                    </g>
                    <g id="资源-38" transform="translate(12.113599, 25.189127)">
                        <path d="M50.7344639,0.0532934084 L7.68084463,0.0532934084 C6.51278221,0.0532934084 5.56588053,0.992058195 5.56588053,2.15008325 L5.56588053,61.8020068 L44.027384,61.8020068 C44.027384,68.2059525 49.5509652,72.6808514 56.0209929,72.6478358 C62.379985,72.6162004 67.5819154,67.2720073 67.5819154,60.9685329 L67.5819154,16.6738475 L56.3558622,16.6738475 C54.5651926,16.6738475 50.7344639,12.787797 50.7344639,11.0133886 L50.7344639,0.0532934084 Z" id="路径" fill="#EEEEF5"></path>
                        <path d="M44.1119825,61.6141694 L0,61.6141694 C0,67.334911 4.19732251,71.470829 9.70416029,72.3873009 L11.6428774,72.5480547 L55.8429834,72.4606885 C49.4134925,72.4606885 43.9480728,67.5655579 44.1119825,61.6141694 Z" id="路径" fill="#BFBFDB"></path>
                        <rect id="矩形" fill="#BFBFDB" x="14.0759673" y="5.64822763" width="11.2798085" height="11.1828791" rx="0.705009218"></rect>
                        <rect id="矩形" fill="#D3D0ED" x="14.0565802" y="22.3351801" width="42.299282" height="2.79571978" rx="0.705009218"></rect>
                        <rect id="矩形" fill="#D3D0ED" x="14.0565802" y="30.7529176" width="42.299282" height="2.79571978" rx="0.705009218"></rect>
                        <rect id="矩形" fill="#D3D0ED" x="14.0565802" y="39.1706552" width="42.299282" height="2.79571978" rx="0.705009218"></rect>
                        <path d="M50.7291764,13.9995668 L50.7291764,16.1837229 C50.7291764,16.6530705 50.9262137,17.1012408 51.2731952,17.420539 C51.6201767,17.7398371 52.0856416,17.9013973 52.5577392,17.8663967 L67.6391957,16.7542245 L50.7291764,13.9995668 Z" id="路径" fill="#BABFD8" fill-rule="nonzero" opacity="0.6"></path>
                        <path d="M59.4710281,8.37580174 L50.7106705,0 L50.7335826,16.0526735 C50.7335826,16.4386819 51.0492165,16.7516035 51.4385707,16.7516035 L67.6391957,16.7516035 L59.4710281,8.37580174 Z" id="路径" fill="#F2F5F9" fill-rule="nonzero"></path>
                    </g>
                    <g id="编组-3备份" transform="translate(58.304925, 12.405303)">
                        <g id="分组备份" transform="translate(0.016219, 0.050177)">
                            <g id="分组">
                                <mask id="mask-10" fill="white">
                                    <use xlink:href="#path-9"></use>
                                </mask>
                                <g id="Clip-2"></g>
                                <path d="M14.7846933,-3.30349633e-06 C6.61931659,-3.30349633e-06 -3.3001555e-06,6.62601748 -3.3001555e-06,14.7996602 C-3.3001555e-06,22.9732699 6.61931659,29.5993238 14.7846933,29.5993238 C22.9500701,29.5993238 29.5693899,22.9732699 29.5693899,14.7996602 C29.5693899,6.62601748 22.9500701,-3.30349633e-06 14.7846933,-3.30349633e-06" id="Fill-1" fill="#5354BB" mask="url(#mask-10)"></path>
                            </g>
                            <path d="M18.2756902,8.9928768 C19.0534379,9.69156627 19.4522947,10.6498114 19.4522947,11.8475931 C19.4522947,12.8257584 19.1930344,13.6442327 18.7144129,14.2830297 C18.5348844,14.5026131 17.9765311,15.0216915 17.019288,15.8401327 C16.6602971,16.1595478 16.3811039,16.498949 16.2016085,16.8582703 C15.9822472,17.2575309 15.8825165,17.6966977 15.8825165,18.1957899 L15.8825165,18.6695113 C15.8825165,18.8674237 15.7222279,19.0278745 15.5245486,19.0278745 L14.1066038,19.0278745 C13.9089245,19.0278745 13.7486359,18.8674237 13.7486359,18.6695113 L13.7486359,18.1957899 C13.7486359,17.4571611 13.8683325,16.818331 14.1275928,16.2992857 C14.4067859,15.7403671 15.1646006,14.9218599 16.4010369,13.8239098 L16.7400949,13.4446354 C17.0990198,12.9854494 17.2785482,12.5063433 17.2785482,11.987298 C17.2785482,11.2886085 17.0790868,10.7496101 16.700196,10.3503165 C16.3013062,9.95108894 15.7429529,9.75145866 15.024971,9.75145866 C14.1275928,9.75145866 13.4694758,10.0309344 13.070619,10.5899191 C12.7586553,11.0062917 12.582262,11.5884999 12.541406,12.3103139 C12.5307135,12.4991087 12.3731641,12.6460482 12.1842632,12.6460482 L10.7856573,12.6460482 C10.5814107,12.6460482 10.4171619,12.4750592 10.4278544,12.2709032 C10.4948806,10.9919876 10.9120533,9.97754994 11.6945861,9.2124602 C12.5321656,8.35407971 13.6888041,7.93483299 15.1446677,7.93483299 C16.4409358,7.93483299 17.4779436,8.27420117 18.2756902,8.9928768" id="Fill-3" fill="#FFFFFF"></path>
                            <path d="M14.9899465,22.2782077 L14.4619216,22.2782077 C14.024486,22.2782077 13.6698843,21.923247 13.6698843,21.4853686 L13.6698843,20.9568092 C13.6698843,20.5189307 14.024486,20.1639701 14.4619216,20.1639701 L14.9899465,20.1639701 C15.4273821,20.1639701 15.7819838,20.5189307 15.7819838,20.9568092 L15.7819838,21.4853686 C15.7819838,21.923247 15.4273821,22.2782077 14.9899465,22.2782077" id="Fill-5" fill="#FFFFFF"></path>
                        </g>
                    </g>
                </g>
            </g>
        </g>
    </g>
</svg>