<?xml version="1.0" encoding="UTF-8"?>
<svg width="48px" height="48px" viewBox="0 0 48 48" version="1.1" xmlns="http://www.w3.org/2000/svg" xmlns:xlink="http://www.w3.org/1999/xlink">
    <title>taichu_logo</title>
    <defs>
        <linearGradient x1="68.5178722%" y1="1.92184056%" x2="50%" y2="100%" id="linearGradient-1">
            <stop stop-color="#6F70DA" offset="0%"></stop>
            <stop stop-color="#5354BB" offset="100%"></stop>
        </linearGradient>
    </defs>
    <g id="kubeoperator" stroke="none" stroke-width="1" fill="none" fill-rule="evenodd">
        <path d="M3.13463511,24.979287 L8.6855568,38.3518929 L22.20709,43.9407428 L22.20709,47.0687831 L7.39207683,40.9454116 C6.80101394,40.7011043 6.33141629,40.2325017 6.08659003,39.6426915 L-1.0125234e-13,24.979287 L3.13463511,24.979287 Z M47.0687831,24.979287 L40.982398,39.6426915 C40.7375718,40.2325017 40.267974,40.7011043 39.6769113,40.9454116 L25.1030207,46.9691251 L25.1030207,43.8407943 L38.3833708,38.3518929 L43.934148,24.979287 L47.0687831,24.979287 Z M23.4621273,8.55021096 C31.7156668,8.55021096 38.4058618,15.2262267 38.4058618,23.4622735 C38.4058618,31.6983203 31.7156668,38.374336 23.4621273,38.374336 C15.2085878,38.374336 8.51839279,31.6983203 8.51839279,23.4622735 C8.51839279,15.2262267 15.2085878,8.55021096 23.4621273,8.55021096 Z M20.797296,28.0215534 C20.71434,28.0219973 20.6328987,28.0437513 20.5608376,28.0847212 C18.9624761,28.9934615 18.0155016,29.7030182 17.7199143,30.2133914 C17.2145588,31.0859589 17.5063613,32.1970457 18.3716734,32.6950735 C19.2369855,33.1931014 20.3481311,32.8894769 20.8534866,32.0169094 C21.1333009,31.5337707 21.2763173,30.4574448 21.282536,28.7879322 L21.2822759,28.4999428 L21.2802851,28.4584561 C21.2578752,28.2123879 21.049712,28.0202307 20.797296,28.0215534 Z M26.0910779,28.2615278 C26.0501238,28.3331888 26.0283443,28.4141449 26.027832,28.496618 C26.0164323,30.3316224 26.158337,31.5042415 26.4535461,32.0144755 C26.9581391,32.886604 28.0690196,33.1892623 28.9347676,32.6904823 C29.8005155,32.1917022 30.0932895,31.0803612 29.5886969,30.2082327 C29.3092725,29.7252815 28.4461469,29.0643038 26.9993195,28.2252994 L26.8738763,28.1529487 L26.7490764,28.0817215 L26.7099462,28.0617602 C26.4853368,27.9596485 26.2156441,28.0435634 26.0910779,28.2615278 Z M14.923577,21.7677678 C13.9136288,21.768207 13.0945507,22.5766353 13.0941146,23.5734431 C13.0936792,24.570251 13.9120507,25.3779676 14.921999,25.377529 C15.4813336,25.3772856 16.4876433,24.9616505 17.940928,24.1306236 L18.0665898,24.0583755 L18.1909548,23.9861237 L18.2278506,23.962306 C18.4288006,23.8193621 18.4906242,23.5445449 18.3634558,23.3280779 C18.3300081,23.2711429 18.2852599,23.221833 18.2321364,23.183063 L18.1907692,23.1560073 L18.0664887,23.0838837 L17.9442786,23.013684 C16.4901794,22.18283 15.4832789,21.7675247 14.923577,21.7677678 Z M32.3924192,21.7601747 C31.8330846,21.7604181 30.8267749,22.1760532 29.3734901,23.0070801 L29.2478284,23.0793283 L29.1234634,23.15158 L29.0865675,23.1753978 C28.8856175,23.3183417 28.823794,23.5931588 28.9509623,23.8096259 C28.992772,23.8807946 29.0522386,23.9400491 29.123649,23.9816964 C30.7109805,24.9074461 31.8000445,25.3701926 32.3908412,25.369936 C33.4007895,25.3694968 34.2198674,24.5610685 34.2203036,23.5642606 C34.2207389,22.5674527 33.4023674,21.7597361 32.3924192,21.7601747 Z M25.1030207,0.099657979 L39.6769113,6.12356221 C40.267974,6.36786959 40.7375718,6.83647198 40.982398,7.42628216 L47.0687831,22.0894961 L43.934148,22.0894961 L38.3833708,8.71702072 L25.1030207,3.22769822 L25.1030207,0.099657979 Z M22.20709,-2.57571742e-13 L22.20709,3.12774969 L8.6855568,8.71702072 L3.13463511,22.0894961 L-1.0125234e-13,22.0894961 L6.08659003,7.42628216 C6.33141629,6.83647198 6.80101394,6.36786959 7.39207683,6.12356221 L22.20709,-2.57571742e-13 Z M18.3796506,14.4472213 C17.5139028,14.9460016 17.2211287,16.0573426 17.7257214,16.9294711 C18.0051455,17.4124222 18.8682712,18.0734 20.3150986,18.9124044 L20.4405419,18.984755 L20.5653417,19.0559822 L20.6044719,19.0759436 C20.8290814,19.1780553 21.0987741,19.0941404 21.2233402,18.876176 C21.2642944,18.8045149 21.2860738,18.7235589 21.2865862,18.6410857 C21.2979858,16.8060813 21.1560811,15.6334622 20.860872,15.1232282 C20.3562791,14.2510999 19.2453985,13.9484413 18.3796506,14.4472213 Z M26.4609316,15.1207942 C26.1811173,15.603933 26.0381008,16.6802588 26.0318822,18.3497716 L26.0321423,18.637761 L26.0341331,18.6792476 C26.0565429,18.9253158 26.2647062,19.1174731 26.5171222,19.1161503 C26.6000781,19.1157065 26.6815194,19.0939525 26.7535806,19.0529825 C28.3519421,18.1442422 29.2989164,17.4346854 29.5945039,16.9243122 C30.0998593,16.0517448 29.8080569,14.9406579 28.9427448,14.4426302 C28.0774327,13.9446025 26.966287,14.2482269 26.4609316,15.1207942 Z" id="taichu_logo" fill="url(#linearGradient-1)"></path>
    </g>
</svg>