<?xml version="1.0" encoding="UTF-8"?>
<svg width="16px" height="16px" viewBox="0 0 16 16" version="1.1" xmlns="http://www.w3.org/2000/svg" xmlns:xlink="http://www.w3.org/1999/xlink">
    <title>changeplatform_hover</title>
    <g id="四个平台菜单重新设计" stroke="none" stroke-width="1" fill="none" fill-rule="evenodd">
        <g id="changeplatform_hover">
            <rect id="矩形" fill-opacity="0.14690778" fill="#5354BB" x="0" y="0" width="16" height="16" rx="1.6"></rect>
            <g id="编组" transform="translate(2.400000, 2.400000)">
                <polygon id="路径" points="0 0 11.2 0 11.2 11.2 0 11.2"></polygon>
                <path d="M3.5,7.7 L3.5,9.8 L1.4,9.8 L1.4,7.7 L3.5,7.7 Z M6.65,7.7 L6.65,9.8 L4.55,9.8 L4.55,7.7 L6.65,7.7 Z M9.8,7.7 L9.8,9.8 L7.7,9.8 L7.7,7.7 L9.8,7.7 Z M6.65,4.55 L6.65,6.65 L4.55,6.65 L4.55,4.55 L6.65,4.55 Z M9.8,4.55 L9.8,6.65 L7.7,6.65 L7.7,4.55 L9.8,4.55 Z M9.8,1.4 L9.8,3.5 L7.7,3.5 L7.7,1.4 L9.8,1.4 Z M3.5,1.4 L3.5,3.5 L1.4,3.5 L1.4,1.4 L3.5,1.4 Z M6.65,1.4 L6.65,3.5 L4.55,3.5 L4.55,1.4 L6.65,1.4 Z M1.4,4.55 L3.5,4.55 L3.5,6.65 L1.4,6.65 L1.4,4.55 Z" id="形状结合" fill="#5354BB"></path>
            </g>
        </g>
    </g>
</svg>