<?xml version="1.0" encoding="UTF-8"?>
<svg width="30px" height="29px" viewBox="0 0 30 29" version="1.1" xmlns="http://www.w3.org/2000/svg" xmlns:xlink="http://www.w3.org/1999/xlink">
    <title>logo_web</title>
    <defs>
        <linearGradient x1="76.9272688%" y1="-0.156316654%" x2="50%" y2="97.4176531%" id="linearGradient-1">
            <stop stop-color="#8384DF" offset="0%"></stop>
            <stop stop-color="#7576D1" offset="100%"></stop>
        </linearGradient>
        <linearGradient x1="68.5178722%" y1="14.4634486%" x2="50%" y2="86.957063%" id="linearGradient-2">
            <stop stop-color="#6F70DA" offset="0%"></stop>
            <stop stop-color="#5354BB" offset="100%"></stop>
        </linearGradient>
        <linearGradient x1="68.5178722%" y1="14.3713851%" x2="50%" y2="87.0528066%" id="linearGradient-3">
            <stop stop-color="#6F70DA" offset="0%"></stop>
            <stop stop-color="#5354BB" offset="100%"></stop>
        </linearGradient>
    </defs>
    <g id="kubeoperator" stroke="none" stroke-width="1" fill="none" fill-rule="evenodd">
        <g id="持续交付-制品库-项目空间备份-4" transform="translate(-20.000000, -21.000000)">
            <g id="logo" transform="translate(20.000000, 21.000000)">
                <g id="logo_web" transform="translate(0.002499, 0.020845)">
                    <path d="M24.5398963,3.51075491e-13 L24.512,0.046 L24.5480763,0.0469619814 L28.638059,7.01880357 L24.5480763,13.9919869 L24.5398963,13.9919869 L20.4540036,7.02551242 L20.4499136,7.01880357 L12.2781281,7.01880357 L12.306,6.971 L12.2699482,6.97184159 L8.18405543,13.9383161 L8.18814541,13.945025 L12.2740382,20.9101577 L12.2781281,20.9168666 L15.282,26.036 L19.5767963,19.8330662 L24.2992944,27.8887082 L8.18814541,27.8887215 L4.09816268,20.9168799 L4.08998273,20.9168799 L3.454,19.833 L-3.60600438e-13,13.945025 L4.08998273,6.97184159 L4.09816268,6.97184159 L8.18405543,0.00670885443 L8.18814541,3.92819876e-13 L24.5398963,3.51075491e-13 Z M19.5183519,21.6703343 L15.8559382,26.9085539 L22.5824808,26.9189732 L19.5183519,21.6703343 Z M11.707,21.89 L8.76,26.913 L14.6543526,26.9139956 L11.707,21.89 Z M11.135,20.916 L5.2400103,20.9168005 L8.18804633,25.9421997 L11.136,20.917 L11.135,20.916 Z M7.616,14.919 L1.71375032,14.9196055 L4.66005663,19.9421619 L4.67,19.942 L7.616,14.919 Z M8.18796396,15.8913202 L5.811,19.942 L10.5643655,19.9421619 L8.18796396,15.8913202 Z M4.67,7.946 L4.66005663,7.94647229 L1.14186873,13.9447232 L1.142,13.945 L7.037,13.945 L7.613,12.964 L4.67,7.946 Z M23.9779254,1.02158371 L23.94,1.021 L20.994,6.044 L21.0089998,6.04416496 L21.3011383,6.52336585 L21.3096338,6.53757195 L24.5439588,12.0521375 L27.4961133,7.01869755 L23.9779254,1.02158371 Z M10.5563758,7.94647229 L5.811,7.946 L8.184,11.99 L10.5563758,7.94647229 Z M8.755,0.979 L5.23992793,6.97183367 L11.127,6.971 L11.698,5.998 L8.755,0.979 Z M15.7979511,0.974638615 L9.89364221,0.974638615 L12.8400309,5.99719506 L12.877,5.997 L15.811,0.997 L15.7979511,0.974638615 Z M16.381,1.97 L14.019,5.997 L18.7443398,5.99719506 L16.381,1.97 Z M22.798,1.021 L16.967,1.021 L19.883,5.991 L22.798,1.021 Z" id="形状结合" fill="url(#linearGradient-1)" fill-rule="nonzero"></path>
                    <g id="Page-1" transform="translate(3.787732, 3.530636)">
                        <path d="M3.2280693,16.3024713 L9.5085473,16.3024713 L12.6487899,21.7027926 L6.36840936,21.7027926 L3.22806208,16.3024713 L0.0878508679,10.9031268 L3.22809348,5.50384458 L6.36833608,10.9031268 L9.50855453,5.50390694 L15.7890881,5.50390694 L15.7891372,5.50390694 L12.6487899,0.104624748 L18.9292752,0.104624748 L22.0694936,5.50386537 L22.069537,5.50386537 L25.2097917,10.9031268 L18.9293186,10.9031268 L15.7890881,5.50390694 L12.6487899,0.104624748 L11.3926929,2.26433762 L12.6487481,0.104624748 L6.3683675,0.104624748 L3.22802021,5.50390694 L6.36833004,10.9031372 L5.74028755,11.983004 L6.36833608,10.9031476 L9.5085787,16.3024298 L3.22814183,16.3024298 L3.2280693,16.3024713 Z M14.3160079,18.8357073 L15.7891372,16.3024298 L18.9292752,21.7027511 L12.6488455,21.7027511 L9.5085787,16.3024298 L15.7890639,16.3024298 L14.3160079,18.8357073 Z" id="path-2" fill="url(#linearGradient-2)"></path>
                        <polygon id="Fill-12" fill="url(#linearGradient-3)" points="10.9599513 13.7345365 9.37663572 11.0085541 10.9599513 8.28257179 14.1265826 8.28257179 15.7098981 11.0085541 14.1265826 13.7345365"></polygon>
                    </g>
                </g>
            </g>
        </g>
    </g>
</svg>