<?xml version="1.0" encoding="UTF-8"?>
<svg width="160px" height="29px" viewBox="0 0 160 29" version="1.1" xmlns="http://www.w3.org/2000/svg" xmlns:xlink="http://www.w3.org/1999/xlink">
    <title>logo</title>
    <defs>
        <linearGradient x1="76.4692918%" y1="-2.8878101%" x2="50%" y2="100%" id="linearGradient-1">
            <stop stop-color="#8384DF" offset="0%"></stop>
            <stop stop-color="#7576D1" offset="100%"></stop>
        </linearGradient>
        <linearGradient x1="68.5178722%" y1="11.8797963%" x2="50%" y2="89.6439923%" id="linearGradient-2">
            <stop stop-color="#6F70DA" offset="0%"></stop>
            <stop stop-color="#5354BB" offset="100%"></stop>
        </linearGradient>
        <linearGradient x1="68.5178722%" y1="11.7810394%" x2="50%" y2="89.7466969%" id="linearGradient-3">
            <stop stop-color="#6F70DA" offset="0%"></stop>
            <stop stop-color="#5354BB" offset="100%"></stop>
        </linearGradient>
    </defs>
    <g id="kubeoperator" stroke="none" stroke-width="1" fill="none" fill-rule="evenodd">
        <g id="持续交付-制品库-项目空间备份-4" transform="translate(-20.000000, -21.000000)">
            <g id="logo" transform="translate(20.000000, 21.000000)">
                <path d="M24.5423951,0.0208453694 L24.5144988,0.0688453694 L24.5505751,0.0694845644 L28.6405578,7.2903205 L24.5505751,14.5125461 L24.5423951,14.5125461 L20.4565023,7.29726895 L20.4524124,7.2903205 L12.2806269,7.2903205 L12.3084988,7.24084537 L12.2724469,7.2416813 L8.18655419,14.4569585 L8.19064418,14.463907 L12.2765369,21.6777944 L12.2806269,21.6847429 L15.2844988,26.9868454 L19.5792951,20.5622354 L24.3017932,28.9055788 L8.19064418,28.9055926 L4.10066145,21.6847567 L4.0924815,21.6847567 L0.00658874923,14.4708693 L0.00249876654,14.463907 L4.0924815,7.2416813 L4.10066145,7.2416813 L8.18655419,0.0277938257 L8.19064418,0.0208453694 L24.5423951,0.0208453694 Z M19.5208506,22.4651202 L15.858437,27.890419 L22.5849796,27.9012105 L19.5208506,22.4651202 Z M11.7094988,22.6928454 L8.76249877,27.8958454 L14.6568514,27.8960551 L11.7094988,22.6928454 Z M11.1374988,21.6838454 L5.24250906,21.6846745 L8.1905451,26.8895522 L11.1384988,21.6848454 L11.1374988,21.6838454 Z M7.61849877,15.4728454 L1.71624909,15.4732939 L4.66255539,20.6752274 L4.67249877,20.6748454 L7.61849877,15.4728454 Z M8.19046273,16.4797127 L5.81349877,20.6748454 L10.5668643,20.6752274 L8.19046273,16.4797127 Z M4.67249877,8.25084537 L4.66255539,8.25112024 L1.14436749,14.4635944 L1.14449877,14.4638454 L7.04049877,14.4638454 L7.61549877,13.4478454 L4.67249877,8.25084537 Z M23.9804241,1.07891421 L23.9424988,1.07884537 L20.9964988,6.28084537 L21.0114986,6.28087336 L21.3036371,6.77718857 L21.3121325,6.79190203 L24.5464576,12.5034163 L27.498612,7.29021069 L23.9804241,1.07891421 Z M10.5588746,8.25112024 L5.81349877,8.25084537 L8.18650906,12.4405782 L10.5588746,8.25112024 Z M8.75749877,1.03484537 L5.24242669,7.2416731 L11.1294988,7.24084537 L11.7004988,6.23284537 L8.75749877,1.03484537 Z M15.8004499,1.03029251 L9.89614098,1.03029251 L12.8425297,6.23222597 L12.8794988,6.23184537 L15.8134988,1.05384537 L15.8004499,1.03029251 Z M16.3834988,2.06184537 L14.0214988,6.23184537 L18.7468385,6.23222597 L16.3834988,2.06184537 Z M22.8004988,1.07884537 L16.9694988,1.07884537 L19.8854988,6.22484537 L22.8004988,1.07884537 Z" id="形状结合" fill="url(#linearGradient-1)" fill-rule="nonzero"></path>
                <g id="Page-1" transform="translate(3.790231, 3.677576)">
                    <path d="M3.2280693,16.8847024 L9.5085473,16.8847024 L12.6487899,22.4778923 L6.36840936,22.4778923 L3.22806208,16.8847024 L0.0878508679,11.2925242 L3.22809348,5.70041046 L6.36833608,11.2925242 L9.50855453,5.70047504 L15.7890881,5.70047504 L15.7891372,5.70047504 L12.6487899,0.108361346 L18.9292752,0.108361346 L22.0694936,5.70043199 L22.069537,5.70043199 L25.2097917,11.2925242 L18.9293186,11.2925242 L15.7890881,5.70047504 L12.6487899,0.108361346 L11.3926929,2.34520682 L12.6487481,0.108361346 L6.3683675,0.108361346 L3.22802021,5.70047504 L6.36833004,11.2925349 L5.74028755,12.4109684 L6.36833608,11.2925457 L9.5085787,16.8846594 L3.22814183,16.8846594 L3.2280693,16.8847024 Z M14.3160079,19.5084112 L15.7891372,16.8846594 L18.9292752,22.4778493 L12.6488455,22.4778493 L9.5085787,16.8846594 L15.7890639,16.8846594 L14.3160079,19.5084112 Z" id="path-2" fill="url(#linearGradient-2)"></path>
                    <polygon id="Fill-12" fill="url(#linearGradient-3)" points="10.9599513 14.2250556 9.37663572 11.4017168 10.9599513 8.57837792 14.1265826 8.57837792 15.7098981 11.4017168 14.1265826 14.2250556"></polygon>
                </g>
                <path d="M37.0046847,9.41645938 L37.0046847,7.73236507 L49.961184,7.73236507 L49.961184,9.41645938 L52.5738996,9.41645938 L52.5738996,6.00452805 L45.0998198,6.00452805 L45.0998198,4.62663271 L41.9731274,4.62663271 L41.9731274,6.00452805 L34.3919691,6.00452805 L34.3919691,9.41645938 L37.0046847,9.41645938 Z M34.2848906,13.46266 C38.0397769,12.9960711 40.6881853,11.4067526 42.2301158,8.69470467 L42.2301158,8.69470467 L39.5317375,8.69470467 C38.4895066,10.0653096 36.7405577,11.0349396 34.2848906,11.6035948 L34.2848906,11.6035948 L34.2848906,13.46266 Z M52.6809781,13.46266 L52.6809781,11.6035948 C50.225311,11.0057778 48.4763621,10.0361478 47.4341313,8.69470467 L47.4341313,8.69470467 L44.7357529,8.69470467 C46.2919605,11.4213336 48.9403689,13.010652 52.6809781,13.46266 L52.6809781,13.46266 Z M50.325251,24.1796238 L50.325251,17.6182174 C51.181879,17.9244163 52.138447,18.2014535 53.194955,18.4493288 L53.194955,18.4493288 L53.194955,16.3496788 C49.4829,15.2561111 46.6703046,13.542855 44.7571686,11.2099105 L44.7571686,11.2099105 L42.2087001,11.2099105 C40.2670099,13.5720168 37.4544144,15.2925633 33.7709138,16.3715502 L33.7709138,16.3715502 L33.7709138,18.4493288 C34.8274217,18.1868726 35.7911283,17.9098354 36.6620335,17.6182174 L36.6620335,17.6182174 L36.6620335,24.1796238 L50.325251,24.1796238 Z M48.5477477,16.9402054 L38.3967053,16.9402054 C40.3383955,16.1090939 42.030236,14.9572026 43.4722265,13.4845313 C44.9570485,14.9717835 46.6488889,16.1236748 48.5477477,16.9402054 L48.5477477,16.9402054 Z M47.7767825,22.3861727 L39.2105019,22.3861727 L39.2105019,18.7336565 L47.7767825,18.7336565 L47.7767825,22.3861727 Z M73.2614672,10.6849979 L73.2614672,5.54522961 L65.8088031,5.54522961 L65.8088031,10.6849979 L73.2614672,10.6849979 Z M63.9456371,10.6849979 L63.9456371,5.54522961 L56.492973,5.54522961 L56.492973,10.6849979 L63.9456371,10.6849979 Z M61.7612355,9.26335989 L58.6773745,9.26335989 L58.6773745,6.96686766 L61.7612355,6.96686766 L61.7612355,9.26335989 Z M71.0770656,9.26335989 L67.9932046,9.26335989 L67.9932046,6.96686766 L71.0770656,6.96686766 L71.0770656,9.26335989 Z M74.4393308,17.8806736 L74.4393308,16.1309653 C70.4417332,15.8393472 67.9360961,15.0811402 66.9224196,13.8563444 L66.9224196,13.8563444 L74.2894208,13.8563444 L74.2894208,12.3034782 L71.5053797,12.3034782 L71.5053797,11.1005537 L69.2353153,11.1005537 L69.2353153,12.3034782 L66.387027,12.3034782 L66.387027,11.0130683 L63.517323,11.0130683 L63.517323,12.3034782 L55.6363449,12.3034782 L55.6363449,13.8563444 L63.0033462,13.8563444 C62.0325011,15.1977875 59.4840326,15.9705753 55.3579408,16.174708 L55.3579408,16.174708 L55.3579408,17.8806736 C60.0408408,17.7931882 63.2389189,16.9256245 64.952175,15.2779824 C66.7796482,16.9110436 69.9420335,17.7786073 74.4393308,17.8806736 L74.4393308,17.8806736 Z M73.1758044,24.1796238 L73.1758044,18.3399721 L65.7873874,18.3399721 L65.7873874,24.1796238 L73.1758044,24.1796238 Z M64.0098842,24.1796238 L64.0098842,18.3399721 L56.6000515,18.3399721 L56.6000515,24.1796238 L64.0098842,24.1796238 Z M61.8254826,22.6923716 L58.784453,22.6923716 L58.784453,19.8272242 L61.8254826,19.8272242 L61.8254826,22.6923716 Z M71.0128185,22.6923716 L67.9717889,22.6923716 L67.9717889,19.8272242 L71.0128185,19.8272242 L71.0128185,22.6923716 Z M93.927619,24.1577524 L93.927619,19.1710835 L81.7849163,19.1710835 L81.7849163,17.7931882 L93.3065637,17.7931882 L93.3065637,13.4189173 L95.4909653,13.4189173 L95.4909653,10.0944714 L87.7170656,10.0944714 L87.7170656,9.02277499 C88.5594166,8.62909061 89.2304419,8.06043539 89.7301416,7.31680933 L89.7301416,7.31680933 L90.843758,7.31680933 C91.0150837,7.88546455 91.1792707,8.51244339 91.3363192,9.19774583 L91.3363192,9.19774583 L93.5207207,9.19774583 C93.4065036,8.65825242 93.2209009,8.03127358 92.9639125,7.31680933 L92.9639125,7.31680933 L95.9192793,7.31680933 L95.9192793,5.76394315 L90.4582754,5.76394315 C90.5582154,5.45774419 90.6510167,5.12238342 90.7366795,4.75786084 L90.7366795,4.75786084 L88.5308623,4.75786084 C88.1168254,6.11388483 87.3244444,7.10538624 86.1537194,7.73236507 L86.1537194,7.73236507 L86.1537194,9.00090364 L84.8045302,9.00090364 L84.8045302,10.0944714 L77.2019562,10.0944714 L77.2019562,13.4189173 L79.1722008,13.4189173 L79.1722008,24.1577524 L93.927619,24.1577524 Z M76.8807207,9.54768751 C78.5368683,9.19774583 79.778979,8.46141022 80.6070528,7.33868069 L80.6070528,7.33868069 L81.5493436,7.33868069 C81.7920549,8.16979216 81.9633805,8.80406145 82.0633205,9.24148854 L82.0633205,9.24148854 L84.247722,9.24148854 C84.0621193,8.48328158 83.8765165,7.84901229 83.6909138,7.33868069 L83.6909138,7.33868069 L86.4321236,7.33868069 L86.4321236,5.78581451 L81.4422651,5.78581451 C81.5564822,5.47961554 81.6564221,5.14425477 81.7420849,4.77973219 L81.7420849,4.77973219 L79.4934363,4.77973219 C79.0793994,6.10659438 78.2084942,7.09809579 76.8807207,7.75423642 L76.8807207,7.75423642 L76.8807207,9.54768751 Z M92.8782497,13.1127183 L79.8146718,13.1127183 L79.8146718,11.7129516 L92.8782497,11.7129516 L92.8782497,13.1127183 Z M90.7580952,16.3059361 L81.7849163,16.3059361 L81.7849163,14.5999704 L90.7580952,14.5999704 L90.7580952,16.3059361 Z M91.3791506,22.6267576 L81.7849163,22.6267576 L81.7849163,20.6583357 L91.3791506,20.6583357 L91.3791506,22.6267576 Z M117.591969,23.7859394 L117.591969,22.0143596 L112.152381,22.0143596 L112.152381,19.5210252 L116.799588,19.5210252 L116.799588,17.7275741 L112.152381,17.7275741 L112.152381,15.6716668 L116.628263,15.6716668 L116.628263,5.5014869 L105.235109,5.5014869 L105.235109,15.6716668 L109.66816,15.6716668 L109.66816,17.7275741 L105.085199,17.7275741 L105.085199,19.5210252 L109.66816,19.5210252 L109.66816,22.0143596 L104.078662,22.0143596 L104.078662,23.7859394 L117.591969,23.7859394 Z M98.0394337,22.9110852 C100.537932,22.488239 102.715195,21.9487456 104.571223,21.2926049 L104.571223,21.2926049 L104.571223,19.3897971 C104.48556,19.4189589 104.349927,19.4554112 104.164324,19.4991539 C103.479022,19.6741247 102.965045,19.8053528 102.622394,19.8928382 L102.622394,19.8928382 L102.622394,14.206286 L104.314234,14.206286 L104.314234,12.4347063 L102.622394,12.4347063 L102.622394,7.60113694 L104.442728,7.60113694 L104.442728,5.82955722 L98.1893436,5.82955722 L98.1893436,7.60113694 L100.138172,7.60113694 L100.138172,12.4347063 L98.3178378,12.4347063 L98.3178378,14.206286 L100.138172,14.206286 L100.138172,20.4177508 C100.009678,20.4323317 99.8026598,20.4687839 99.5171171,20.5271075 C98.8603689,20.6291739 98.3678078,20.7020784 98.0394337,20.7458211 L98.0394337,20.7458211 L98.0394337,22.9110852 Z M109.66816,9.61330157 L107.483758,9.61330157 L107.483758,7.27306662 L109.66816,7.27306662 L109.66816,9.61330157 Z M114.358198,9.61330157 L112.152381,9.61330157 L112.152381,7.27306662 L114.358198,7.27306662 L114.358198,9.61330157 Z M109.66816,13.8782157 L107.483758,13.8782157 L107.483758,11.4067526 L109.66816,11.4067526 L109.66816,13.8782157 Z M114.358198,13.8782157 L112.152381,13.8782157 L112.152381,11.4067526 L114.358198,11.4067526 L114.358198,13.8782157 Z M130.569884,24.5733081 L130.569884,17.6400887 L138.793514,17.6400887 L138.793514,15.7591522 L130.569884,15.7591522 L130.569884,7.46990881 L137.936885,7.46990881 L137.936885,5.61084367 L120.461673,5.61084367 L120.461673,7.46990881 L127.721596,7.46990881 L127.721596,15.7591522 L119.497967,15.7591522 L119.497967,17.6400887 L127.721596,17.6400887 L127.721596,24.5733081 L130.569884,24.5733081 Z M135.452664,14.0313152 C135.995195,12.7627766 136.459202,11.1515868 136.844685,9.19774583 L136.844685,9.19774583 L134.210553,9.19774583 C133.910734,10.8599688 133.468142,12.4711586 132.88278,14.0313152 L132.88278,14.0313152 L135.452664,14.0313152 Z M125.4087,14.0313152 C124.837615,12.4565777 124.395024,10.8453879 124.080927,9.19774583 L124.080927,9.19774583 L121.446795,9.19774583 C121.803724,11.0495205 122.267731,12.6607103 122.838816,14.0313152 L122.838816,14.0313152 L125.4087,14.0313152 Z M159.909395,13.8126017 C159.024213,11.6983707 158.003398,9.54039705 156.84695,7.33868069 L156.84695,7.33868069 L154.298481,7.33868069 C154.412698,7.58655604 154.584024,7.95836907 154.812458,8.45411977 C155.255049,9.40187847 155.583423,10.1163427 155.79758,10.5975125 C152.442454,10.8745497 148.951695,11.0057778 145.325302,10.9911969 C147.395487,9.32897396 149.115882,7.24390482 150.486486,4.73598948 L150.486486,4.73598948 L147.488288,4.73598948 C146.260455,6.6752496 144.44012,8.75302829 142.027284,10.9693256 L142.027284,10.9693256 L142.027284,13.090847 L144.185382,13.0907202 C149.378719,13.0854815 153.534995,12.9178434 156.654208,12.5878058 C156.839811,13.0252329 156.954028,13.3095605 156.99686,13.4407886 C157.068245,13.6011786 157.118215,13.7251162 157.14677,13.8126017 L157.14677,13.8126017 L159.909395,13.8126017 Z M158.23897,24.1796238 L158.23897,15.0373975 L142.990991,15.0373975 L142.990991,24.1796238 L158.23897,24.1796238 Z M155.540592,22.3205586 L145.667954,22.3205586 L145.667954,16.8964627 L155.540592,16.8964627 L155.540592,22.3205586 Z" id="容器管理平台" fill-opacity="0.836811626" fill="#FFFFFF" fill-rule="nonzero"></path>
            </g>
        </g>
    </g>
</svg>