<?xml version="1.0" encoding="UTF-8"?>
<svg width="168px" height="29px" viewBox="0 0 168 29" version="1.1" xmlns="http://www.w3.org/2000/svg" xmlns:xlink="http://www.w3.org/1999/xlink">
    <title>logo_white</title>
    <defs>
        <linearGradient x1="68.5178722%" y1="1.92184056%" x2="50%" y2="100%" id="linearGradient-1">
            <stop stop-color="#6F70DA" offset="0%"></stop>
            <stop stop-color="#5354BB" offset="100%"></stop>
        </linearGradient>
    </defs>
    <g id="kubeoperator" stroke="none" stroke-width="1" fill="none" fill-rule="evenodd">
        <g id="logo_white">
            <path d="M1.89431186,15.0953964 L5.24882569,23.1766835 L13.4201119,26.554118 L13.4201119,28.4444444 L4.46715435,24.7439897 C4.10996526,24.5963508 3.82617963,24.3131665 3.67822707,23.9567344 L-1.234568e-13,15.0953964 L1.89431186,15.0953964 Z M28.4444444,15.0953964 L24.7663413,23.9567344 C24.6183887,24.3131665 24.334603,24.5963508 23.977414,24.7439897 L15.1701708,28.3842195 L15.1701708,26.4937174 L23.1957061,23.1766835 L26.5501326,15.0953964 L28.4444444,15.0953964 Z M14.1785517,5.16703396 C19.1663022,5.16703396 23.2092978,9.20146071 23.2092978,14.1786401 C23.2092978,19.1558195 19.1663022,23.1902462 14.1785517,23.1902462 C9.19080125,23.1902462 5.14780572,19.1558195 5.14780572,14.1786401 C5.14780572,9.20146071 9.19080125,5.16703396 14.1785517,5.16703396 Z M12.5681501,16.9338884 C12.5180184,16.9341566 12.4688021,16.9473029 12.4252544,16.9720618 C11.4593381,17.5212286 10.8870657,17.9500254 10.7084374,18.2584524 C10.4030427,18.7857593 10.5793838,19.4572075 11.1023062,19.7581739 C11.6252286,20.0591404 12.2967123,19.8756551 12.602107,19.3483481 C12.7712034,19.0563794 12.8576306,18.4059379 12.8613886,17.3970237 L12.8612315,17.222987 L12.8600284,17.1979159 C12.8464858,17.0492128 12.7206892,16.933089 12.5681501,16.9338884 Z M15.7672701,17.0789089 C15.7425209,17.1222148 15.7293592,17.1711379 15.7290495,17.2209778 C15.7221605,18.3299013 15.8079159,19.0385344 15.9863157,19.3468773 C16.2912495,19.8739189 16.962573,20.0568204 17.4857588,19.7553994 C18.0089446,19.4539783 18.1858728,18.7823766 17.8809391,18.2553349 C17.7120784,17.9634794 17.1904773,17.5640397 16.3161355,17.0570154 L16.2403281,17.0132928 L16.1649095,16.970249 L16.1412625,16.958186 C16.0055273,16.8964782 15.8425475,16.9471894 15.7672701,17.0789089 Z M9.01856453,13.1546222 C8.4082361,13.1548877 7.91325367,13.6434343 7.91299011,14.2458218 C7.91272698,14.8482093 8.40728246,15.3363258 9.01761089,15.3360607 C9.35562609,15.3359136 9.96375566,15.0847385 10.8419996,14.5825351 L10.9179392,14.5388744 L10.993095,14.4952114 L11.0153917,14.480818 C11.1368291,14.3944347 11.1741901,14.2283581 11.0973402,14.0975435 C11.0771272,14.0631367 11.0500851,14.0333379 11.0179817,14.0099086 L10.9929828,13.9935584 L10.917878,13.9499729 L10.8440245,13.90755 C9.96528829,13.4054512 9.35680166,13.1544753 9.01856453,13.1546222 Z M19.5752749,13.1500337 C19.2372597,13.1501807 18.6291301,13.4013559 17.7508861,13.9035592 L17.6749467,13.94722 L17.5997908,13.9908829 L17.577494,14.0052764 C17.4560566,14.0916597 17.4186956,14.2577363 17.4955456,14.3885509 C17.5208118,14.4315593 17.5567485,14.4673678 17.599903,14.492536 C18.5591537,15.0519818 19.2172931,15.3316272 19.5743213,15.3314721 C20.1846497,15.3312067 20.6796321,14.8426601 20.6798957,14.2402726 C20.6801588,13.6378851 20.1856033,13.1497686 19.5752749,13.1500337 Z M15.1701708,0.0602249657 L23.977414,3.70056997 C24.334603,3.84820896 24.6183887,4.13139314 24.7663413,4.48782519 L28.4444444,13.349048 L26.5501326,13.349048 L23.1957061,5.26783986 L15.1701708,1.95055144 L15.1701708,0.0602249657 Z M13.4201119,-3.12638804e-13 L13.4201119,1.89015089 L5.24882569,5.26783986 L1.89431186,13.349048 L-1.234568e-13,13.349048 L3.67822707,4.48782519 C3.82617963,4.13139314 4.10996526,3.84820896 4.46715435,3.70056997 L13.4201119,-3.12638804e-13 Z M11.107127,8.7306949 C10.5839412,9.03211608 10.407013,9.70371782 10.7119467,10.2307595 C10.8808073,10.5226149 11.4024085,10.9220547 12.2767502,11.4290789 L12.4279763,11.5158454 L12.4516233,11.5279083 C12.5873585,11.5896162 12.7503383,11.538905 12.8256157,11.4071855 C12.8503649,11.3638795 12.8635266,11.3149564 12.8638362,11.2651165 C12.8707252,10.156193 12.7849699,9.44755987 12.6065701,9.13921707 C12.3016363,8.61217549 11.6303128,8.4292739 11.107127,8.7306949 Z M15.9907788,9.13774616 C15.8216824,9.42971493 15.7352551,10.0801564 15.7314971,11.0890706 L15.7316543,11.2631074 L15.7328574,11.2881784 C15.7464,11.4368815 15.8721965,11.5530053 16.0247357,11.5522059 C16.0748673,11.5519377 16.1240837,11.5387914 16.1676314,11.5140326 C17.1335477,10.9648658 17.70582,10.5360689 17.8844484,10.2276419 C18.189843,9.70033499 18.013502,9.02888681 17.4905796,8.72792041 C16.9676571,8.42695401 16.2961735,8.61043925 15.9907788,9.13774616 Z" id="形状结合备份" fill="url(#linearGradient-1)"></path>
            <path d="M52.066289,24.7536062 L52.066289,22.062768 C46.7791827,18.9698506 43.903739,15.0418454 43.4399577,10.2787524 L43.4399577,10.2787524 L51.7184531,10.2787524 L51.7184531,8.21423002 L43.3472015,8.21423002 L43.3472015,3.78362573 L40.0079764,3.78362573 L40.0079764,8.21423002 L31.6135358,8.21423002 L31.6135358,10.2787524 L39.8920311,10.2787524 C39.4127905,14.979987 36.5450764,18.9079922 31.2888889,22.062768 L31.2888889,22.062768 L31.2888889,24.7536062 C34.6899514,23.11436 37.2562077,21.3359324 38.9876577,19.4183236 C39.5287358,20.8719948 39.9384092,22.1246264 40.216678,23.1762183 L40.216678,23.1762183 L43.1616889,23.1762183 C42.6206108,21.4905783 42.1027218,20.0987654 41.6080218,19.0007797 L41.6080218,19.0007797 L39.3586827,19.0007797 C40.2089483,18.0419753 40.9973764,16.8589344 41.7239671,15.4516569 C43.5945515,19.4260559 47.0419921,22.5267057 52.066289,24.7536062 L52.066289,24.7536062 Z M60.4839187,7.19356725 C60.081975,5.86361274 59.6491125,4.70376868 59.1853312,3.71403509 L59.1853312,3.71403509 L56.6345343,3.71403509 C57.113775,4.98213125 57.4848,6.14197531 57.7476093,7.19356725 L57.7476093,7.19356725 L60.4839187,7.19356725 Z M62.4781781,24.8 C66.4666969,22.2638077 68.4068485,16.9671865 68.2986328,8.91013645 L68.2986328,8.91013645 L68.2986328,7.28635478 L71.7306141,7.28635478 L71.7306141,22.2483431 L68.9943047,22.2483431 L68.9943047,24.1736842 L74.5596797,24.1736842 L74.5596797,5.33781676 L62.7100687,5.33781676 L62.7100687,7.28635478 L65.5623234,7.28635478 L65.5623234,8.9797271 C65.5777828,12.2272904 65.3613516,14.7480182 64.9130297,16.5419103 C64.4801672,18.3512671 63.66855,20.0755686 62.4781781,21.7148148 L62.4781781,21.7148148 L62.4781781,24.8 Z M59.9041922,24.6608187 L59.9041922,17.4233918 C60.9863484,17.6708252 61.9834781,18.0187784 62.8955812,18.4672515 L62.8955812,18.4672515 L62.8955812,16.4259259 C62.0453156,16.0393112 61.0481859,15.7764133 59.9041922,15.637232 L59.9041922,15.637232 L59.9041922,15.4980507 C61.094564,15.3124756 62.0916937,15.0341131 62.8955812,14.662963 L62.8955812,14.662963 L62.8955812,12.6216374 C62.060775,13.0391813 61.2259687,13.348473 60.3911625,13.5495127 C61.0559156,12.4051332 61.6124531,11.0983756 62.060775,9.62923977 L62.060775,9.62923977 L62.060775,7.81988304 L54.8953546,7.81988304 L54.8953546,9.62923977 L59.2780875,9.62923977 C58.5360375,12.3355426 56.9282625,14.6165692 54.4547624,16.4723197 L54.4547624,16.4723197 L54.4547624,18.7688109 C55.4750812,18.2894087 56.4026437,17.7249513 57.23745,17.0754386 L57.23745,17.0754386 L57.23745,24.6608187 L59.9041922,24.6608187 Z M81.0294282,8.7245614 L81.0294282,6.93840156 L95.0588111,6.93840156 L95.0588111,8.7245614 L97.8878767,8.7245614 L97.8878767,5.10584795 L89.7948939,5.10584795 L89.7948939,3.64444444 L86.4092907,3.64444444 L86.4092907,5.10584795 L78.2003626,5.10584795 L78.2003626,8.7245614 L81.0294282,8.7245614 Z M78.0844173,13.0159844 C82.1502329,12.5211176 85.017947,10.8354776 86.6875595,7.95906433 L86.6875595,7.95906433 L83.7657376,7.95906433 C82.6372032,9.41273554 80.7434298,10.4411306 78.0844173,11.0442495 L78.0844173,11.0442495 L78.0844173,13.0159844 Z M98.003822,13.0159844 L98.003822,11.0442495 C95.3448095,10.4102014 93.4510361,9.38180637 92.3225017,7.95906433 L92.3225017,7.95906433 L89.4006798,7.95906433 C91.0857517,10.8509422 93.9534658,12.5365822 98.003822,13.0159844 L98.003822,13.0159844 Z M95.4530252,24.3824561 L95.4530252,17.4233918 C96.3805877,17.7481481 97.4163658,18.0419753 98.5603595,18.3048733 L98.5603595,18.3048733 L98.5603595,16.0779727 C94.540922,14.9181287 91.4954251,13.1010396 89.4238689,10.6267057 L89.4238689,10.6267057 L86.6643704,10.6267057 C84.5618954,13.1319688 81.5163985,14.9567901 77.5278797,16.1011696 L77.5278797,16.1011696 L77.5278797,18.3048733 C78.6718735,18.0265107 79.7153813,17.7326836 80.6584032,17.4233918 L80.6584032,17.4233918 L80.6584032,24.3824561 L95.4530252,24.3824561 Z M93.528333,16.7042885 L82.5367173,16.7042885 C84.6391923,15.822807 86.4711282,14.6011046 88.0325251,13.0391813 C89.6403001,14.6165692 91.4722361,15.8382716 93.528333,16.7042885 L93.528333,16.7042885 Z M92.6935267,22.4803119 L83.4179017,22.4803119 L83.4179017,18.6064327 L92.6935267,18.6064327 L92.6935267,22.4803119 Z M120.288511,10.0699805 L120.288511,4.61871345 L112.218717,4.61871345 L112.218717,10.0699805 L120.288511,10.0699805 Z M110.201269,10.0699805 L110.201269,4.61871345 L102.131475,4.61871345 L102.131475,10.0699805 L110.201269,10.0699805 Z M107.835985,8.56218324 L104.49676,8.56218324 L104.49676,6.12651072 L107.835985,6.12651072 L107.835985,8.56218324 Z M117.923227,8.56218324 L114.584002,8.56218324 L114.584002,6.12651072 L117.923227,6.12651072 L117.923227,8.56218324 Z M121.56391,17.7017544 L121.56391,15.8460039 C117.235285,15.5367122 114.522164,14.7325536 113.424549,13.4335283 L113.424549,13.4335283 L121.401586,13.4335283 L121.401586,11.7865497 L118.387008,11.7865497 L118.387008,10.5107212 L115.928967,10.5107212 L115.928967,11.7865497 L112.844822,11.7865497 L112.844822,10.4179337 L109.737488,10.4179337 L109.737488,11.7865497 L101.203913,11.7865497 L101.203913,13.4335283 L109.18095,13.4335283 C108.129713,14.8562703 105.370214,15.6758934 100.902455,15.8923977 L100.902455,15.8923977 L100.902455,17.7017544 C105.97313,17.6089669 109.43603,16.6888239 111.291155,14.9413255 C113.269955,16.6733593 116.694207,17.5935023 121.56391,17.7017544 L121.56391,17.7017544 Z M120.195755,24.3824561 L120.195755,18.1888889 L112.195528,18.1888889 L112.195528,24.3824561 L120.195755,24.3824561 Z M110.270836,24.3824561 L110.270836,18.1888889 L102.247421,18.1888889 L102.247421,24.3824561 L110.270836,24.3824561 Z M107.905552,22.8050682 L104.612705,22.8050682 L104.612705,19.7662768 L107.905552,19.7662768 L107.905552,22.8050682 Z M117.85366,22.8050682 L114.560813,22.8050682 L114.560813,19.7662768 L117.85366,19.7662768 L117.85366,22.8050682 Z M135.964318,24.8 L135.964318,17.4465887 L144.868918,17.4465887 L144.868918,15.4516569 L135.964318,15.4516569 L135.964318,6.66003899 L143.941355,6.66003899 L143.941355,4.68830409 L125.01908,4.68830409 L125.01908,6.66003899 L132.880172,6.66003899 L132.880172,15.4516569 L123.975572,15.4516569 L123.975572,17.4465887 L132.880172,17.4465887 L132.880172,24.8 L135.964318,24.8 Z M141.251424,13.6191033 C141.83888,12.2736842 142.34131,10.5648473 142.758713,8.49259259 L142.758713,8.49259259 L139.906458,8.49259259 C139.581811,10.2555556 139.102571,11.9643925 138.468736,13.6191033 L138.468736,13.6191033 L141.251424,13.6191033 Z M130.375753,13.6191033 C129.757378,11.9489279 129.278138,10.240091 128.938032,8.49259259 L128.938032,8.49259259 L126.085777,8.49259259 C126.472261,10.4565952 126.974691,12.1654321 127.593066,13.6191033 L127.593066,13.6191033 L130.375753,13.6191033 Z M167.733333,13.3871345 C166.774852,11.1447693 165.669507,8.8560104 164.417297,6.5208577 L164.417297,6.5208577 L161.657799,6.5208577 C161.781474,6.78375569 161.966986,7.17810266 162.214336,7.70389864 C162.693577,8.70909682 163.049143,9.4668616 163.281033,9.97719298 C159.64808,10.2710201 155.868263,10.4102014 151.941582,10.3947368 C154.183191,8.63177388 156.046046,6.42033788 157.530146,3.76042885 L157.530146,3.76042885 L154.283677,3.76042885 C152.954171,5.81721897 150.9831,8.02092268 148.370466,10.37154 L148.370466,10.37154 L148.370466,12.6216374 L150.606471,12.6215841 C156.276893,12.6180628 160.810934,12.4402378 164.208596,12.0881092 C164.409568,12.5520468 164.533243,12.8536062 164.579621,12.9927875 C164.656918,13.162898 164.711026,13.294347 164.741944,13.3871345 L164.741944,13.3871345 L167.733333,13.3871345 Z M165.924586,24.3824561 L165.924586,14.6861598 L149.413974,14.6861598 L149.413974,24.3824561 L165.924586,24.3824561 Z M163.002765,22.4107212 L152.312607,22.4107212 L152.312607,16.6578947 L163.002765,16.6578947 L163.002765,22.4107212 Z" id="太初容器平台" fill="#FFFFFF" fill-rule="nonzero" opacity="0.849051339"></path>
        </g>
    </g>
</svg>