<?xml version="1.0" encoding="UTF-8"?>
<svg width="278px" height="48px" viewBox="0 0 278 48" version="1.1" xmlns="http://www.w3.org/2000/svg" xmlns:xlink="http://www.w3.org/1999/xlink">
    <title>logo_black</title>
    <defs>
        <linearGradient x1="68.5178722%" y1="1.92184056%" x2="50%" y2="100%" id="linearGradient-1">
            <stop stop-color="#6F70DA" offset="0%"></stop>
            <stop stop-color="#5354BB" offset="100%"></stop>
        </linearGradient>
    </defs>
    <g id="kubeoperator" stroke="none" stroke-width="1" fill="none" fill-rule="evenodd">
        <g id="logo_black" transform="translate(-0.000000, 0.000000)">
            <path d="M3.13463511,24.979287 L8.6855568,38.3518929 L22.20709,43.9407428 L22.20709,47.0687831 L7.39207683,40.9454116 C6.80101394,40.7011043 6.33141629,40.2325017 6.08659003,39.6426915 L3.10862447e-13,24.979287 L3.13463511,24.979287 Z M47.0687831,24.979287 L40.982398,39.6426915 C40.7375718,40.2325017 40.267974,40.7011043 39.6769113,40.9454116 L25.1030207,46.9691251 L25.1030207,43.8407943 L38.3833708,38.3518929 L43.934148,24.979287 L47.0687831,24.979287 Z M23.4621273,8.55021096 C31.7156668,8.55021096 38.4058618,15.2262267 38.4058618,23.4622735 C38.4058618,31.6983203 31.7156668,38.374336 23.4621273,38.374336 C15.2085878,38.374336 8.51839279,31.6983203 8.51839279,23.4622735 C8.51839279,15.2262267 15.2085878,8.55021096 23.4621273,8.55021096 Z M20.797296,28.0215534 C20.71434,28.0219973 20.6328987,28.0437513 20.5608376,28.0847212 C18.9624761,28.9934615 18.0155016,29.7030182 17.7199143,30.2133914 C17.2145588,31.0859589 17.5063613,32.1970457 18.3716734,32.6950735 C19.2369855,33.1931014 20.3481311,32.8894769 20.8534866,32.0169094 C21.1333009,31.5337707 21.2763173,30.4574448 21.282536,28.7879322 L21.2822759,28.4999428 L21.2802851,28.4584561 C21.2578752,28.2123879 21.049712,28.0202307 20.797296,28.0215534 Z M26.0910779,28.2615278 C26.0501238,28.3331888 26.0283443,28.4141449 26.027832,28.496618 C26.0164323,30.3316224 26.158337,31.5042415 26.4535461,32.0144755 C26.9581391,32.886604 28.0690196,33.1892623 28.9347676,32.6904823 C29.8005155,32.1917022 30.0932895,31.0803612 29.5886969,30.2082327 C29.3092725,29.7252815 28.4461469,29.0643038 26.9993195,28.2252994 L26.8738763,28.1529487 L26.7490764,28.0817215 L26.7099462,28.0617602 C26.4853368,27.9596485 26.2156441,28.0435634 26.0910779,28.2615278 Z M14.923577,21.7677678 C13.9136288,21.768207 13.0945507,22.5766353 13.0941146,23.5734431 C13.0936792,24.570251 13.9120507,25.3779676 14.921999,25.377529 C15.4813336,25.3772856 16.4876433,24.9616505 17.940928,24.1306236 L18.0665898,24.0583755 L18.1909548,23.9861237 L18.2278506,23.962306 C18.4288006,23.8193621 18.4906242,23.5445449 18.3634558,23.3280779 C18.3300081,23.2711429 18.2852599,23.221833 18.2321364,23.183063 L18.1907692,23.1560073 L18.0664887,23.0838837 L17.9442786,23.013684 C16.4901794,22.18283 15.4832789,21.7675247 14.923577,21.7677678 Z M32.3924192,21.7601747 C31.8330846,21.7604181 30.8267749,22.1760532 29.3734901,23.0070801 L29.2478284,23.0793283 L29.1234634,23.15158 L29.0865675,23.1753978 C28.8856175,23.3183417 28.823794,23.5931588 28.9509623,23.8096259 C28.992772,23.8807946 29.0522386,23.9400491 29.123649,23.9816964 C30.7109805,24.9074461 31.8000445,25.3701926 32.3908412,25.369936 C33.4007895,25.3694968 34.2198674,24.5610685 34.2203036,23.5642606 C34.2207389,22.5674527 33.4023674,21.7597361 32.3924192,21.7601747 Z M25.1030207,0.099657979 L39.6769113,6.12356221 C40.267974,6.36786959 40.7375718,6.83647198 40.982398,7.42628216 L47.0687831,22.0894961 L43.934148,22.0894961 L38.3833708,8.71702072 L25.1030207,3.22769822 L25.1030207,0.099657979 Z M22.20709,-7.54951657e-13 L22.20709,3.12774969 L8.6855568,8.71702072 L3.13463511,22.0894961 L3.10862447e-13,22.0894961 L6.08659003,7.42628216 C6.33141629,6.83647198 6.80101394,6.36786959 7.39207683,6.12356221 L22.20709,-7.54951657e-13 Z M18.3796506,14.4472213 C17.5139028,14.9460016 17.2211287,16.0573426 17.7257214,16.9294711 C18.0051455,17.4124222 18.8682712,18.0734 20.3150986,18.9124044 L20.4405419,18.984755 L20.5653417,19.0559822 L20.6044719,19.0759436 C20.8290814,19.1780553 21.0987741,19.0941404 21.2233402,18.876176 C21.2642944,18.8045149 21.2860738,18.7235589 21.2865862,18.6410857 C21.2979858,16.8060813 21.1560811,15.6334622 20.860872,15.1232282 C20.3562791,14.2510999 19.2453985,13.9484413 18.3796506,14.4472213 Z M26.4609316,15.1207942 C26.1811173,15.603933 26.0381008,16.6802588 26.0318822,18.3497716 L26.0321423,18.637761 L26.0341331,18.6792476 C26.0565429,18.9253158 26.2647062,19.1174731 26.5171222,19.1161503 C26.6000781,19.1157065 26.6815194,19.0939525 26.7535806,19.0529825 C28.3519421,18.1442422 29.2989164,17.4346854 29.5945039,16.9243122 C30.0998593,16.0517448 29.8080569,14.9406579 28.9427448,14.4426302 C28.0774327,13.9446025 26.966287,14.2482269 26.4609316,15.1207942 Z" id="形状结合备份" fill="url(#linearGradient-1)"></path>
            <path d="M86.1573116,40.9613246 L86.1573116,36.5086281 C77.4084095,31.390586 72.6502347,24.8906727 71.8827871,17.008888 L71.8827871,17.008888 L85.5817259,17.008888 L85.5817259,13.5925949 L71.7292976,13.5925949 L71.7292976,6.26099972 L66.2036753,6.26099972 L66.2036753,13.5925949 L52.3128747,13.5925949 L52.3128747,17.008888 L66.0118134,17.008888 C65.2187843,24.7883118 60.4734003,31.2882252 51.7756614,36.5086281 L51.7756614,36.5086281 L51.7756614,40.9613246 C57.4036101,38.2487623 61.6501532,35.3058882 64.5152907,32.1327021 C65.4106462,34.5381819 66.0885582,36.6109889 66.5490267,38.3511232 L66.5490267,38.3511232 L71.4223186,38.3511232 C70.5269631,35.5617903 69.66998,33.2586714 68.8513693,31.4417665 L68.8513693,31.4417665 L65.1292487,31.4417665 C66.5362359,29.8551734 67.8408967,27.8975224 69.0432312,25.5688132 C72.138603,32.1454972 77.8432964,37.2763344 86.1573116,40.9613246 L86.1573116,40.9613246 Z M100.086485,11.903641 C99.4213633,9.70288298 98.705079,7.78361722 97.9376314,6.14584378 L97.9376314,6.14584378 L93.7166699,6.14584378 C94.509699,8.244241 95.1236571,10.1635068 95.558544,11.903641 L95.558544,11.903641 L100.086485,11.903641 Z M103.386509,41.0380952 C109.986558,36.8413008 113.197047,28.0766538 113.017976,14.7441544 L113.017976,14.7441544 L113.017976,12.0571823 L118.697088,12.0571823 L118.697088,36.8157106 L114.169147,36.8157106 L114.169147,40.0016917 L123.378518,40.0016917 L123.378518,8.83281584 L103.770233,8.83281584 L103.770233,12.0571823 L108.490035,12.0571823 L108.490035,14.8593103 C108.515617,20.2332544 108.157475,24.4044587 107.415609,27.372923 C106.699324,30.3669776 105.356291,33.2202861 103.386509,35.9328483 L103.386509,35.9328483 L103.386509,41.0380952 Z M99.1271751,40.8077833 L99.1271751,28.831565 C100.917886,29.2410084 102.567898,29.8167881 104.077212,30.5589042 L104.077212,30.5589042 L104.077212,27.1809965 C102.670225,26.5412412 101.020212,26.1062076 99.1271751,25.8758958 L99.1271751,25.8758958 L99.1271751,25.6455839 C101.096957,25.3385013 102.746969,24.8778776 104.077212,24.2637125 L104.077212,24.2637125 L104.077212,20.8858048 C102.695806,21.5767405 101.314401,22.0885447 99.932995,22.4212174 C101.033003,20.5275418 101.95394,18.3651691 102.695806,15.9340991 L102.695806,15.9340991 L102.695806,12.9400446 L90.8387416,12.9400446 L90.8387416,15.9340991 L98.0911209,15.9340991 C96.8632049,20.4123859 94.20272,24.1869419 90.1096664,27.2577671 L90.1096664,27.2577671 L90.1096664,31.0579133 C91.798051,30.2646168 93.3329461,29.3305741 94.7143517,28.2557853 L94.7143517,28.2557853 L94.7143517,40.8077833 L99.1271751,40.8077833 Z M134.084411,14.4370718 L134.084411,11.4814026 L157.299699,11.4814026 L157.299699,14.4370718 L161.981129,14.4370718 L161.981129,8.44896268 L148.58917,8.44896268 L148.58917,6.03068783 L142.986803,6.03068783 L142.986803,8.44896268 L129.402981,8.44896268 L129.402981,14.4370718 L134.084411,14.4370718 Z M129.211119,21.5383551 C135.939076,20.7194684 140.68446,17.9301355 143.447271,13.1703564 L143.447271,13.1703564 L138.612351,13.1703564 C136.744896,15.5758362 133.611152,17.2775852 129.211119,18.2756034 L129.211119,18.2756034 L129.211119,21.5383551 Z M162.172991,21.5383551 L162.172991,18.2756034 C157.772959,17.2264047 154.639214,15.5246558 152.771759,13.1703564 L152.771759,13.1703564 L147.936839,13.1703564 C150.725232,17.9557257 155.470616,20.7450586 162.172991,21.5383551 L162.172991,21.5383551 Z M157.95203,40.3471596 L157.95203,28.831565 C159.486925,29.3689594 161.200891,29.8551734 163.093928,30.290207 L163.093928,30.290207 L163.093928,26.6052167 C156.442716,24.685951 151.403144,21.6791013 147.975212,17.5846677 L147.975212,17.5846677 L143.408899,17.5846677 C139.929803,21.7302817 134.890231,24.7499265 128.290182,26.6436021 L128.290182,26.6436021 L128.290182,30.290207 C130.183219,29.8295832 131.909976,29.3433692 133.470453,28.831565 L133.470453,28.831565 L133.470453,40.3471596 L157.95203,40.3471596 Z M154.767122,27.6416203 L136.578615,27.6416203 C140.057711,26.1829783 143.089129,24.1613517 145.672869,21.5767405 C148.333354,24.1869419 151.364772,26.2085685 154.767122,27.6416203 L154.767122,27.6416203 Z M153.385717,37.1995637 L138.036766,37.1995637 L138.036766,30.7892161 L153.385717,30.7892161 L153.385717,37.1995637 Z M199.048846,16.6634201 L199.048846,7.64287107 L185.695259,7.64287107 L185.695259,16.6634201 L199.048846,16.6634201 Z M182.356862,16.6634201 L182.356862,7.64287107 L169.003274,7.64287107 L169.003274,16.6634201 L182.356862,16.6634201 Z M178.442879,14.1683746 L172.917257,14.1683746 L172.917257,10.1379166 L178.442879,10.1379166 L178.442879,14.1683746 Z M195.134863,14.1683746 L189.609241,14.1683746 L189.609241,10.1379166 L195.134863,10.1379166 L195.134863,14.1683746 Z M201.159327,29.2921888 L201.159327,26.2213636 C193.996483,25.7095594 189.506915,24.3788685 187.690622,22.2292908 L187.690622,22.2292908 L200.89072,22.2292908 L200.89072,19.5039334 L195.902311,19.5039334 L195.902311,17.3927411 L191.834839,17.3927411 L191.834839,19.5039334 L186.731313,19.5039334 L186.731313,17.2391999 L181.589414,17.2391999 L181.589414,19.5039334 L167.468379,19.5039334 L167.468379,22.2292908 L180.668477,22.2292908 C178.928929,24.5835901 174.362616,25.9398713 166.969538,26.2981342 L166.969538,26.2981342 L166.969538,29.2921888 C175.360298,29.1386475 181.090573,27.61603 184.160364,24.7243363 C187.434806,27.5904398 193.101127,29.1130573 201.159327,29.2921888 L201.159327,29.2921888 Z M198.895356,40.3471596 L198.895356,30.0982804 L185.656886,30.0982804 L185.656886,40.3471596 L198.895356,40.3471596 Z M182.471979,40.3471596 L182.471979,30.0982804 L169.195136,30.0982804 L169.195136,40.3471596 L182.471979,40.3471596 Z M178.557996,37.7369581 L173.109119,37.7369581 L173.109119,32.7084819 L178.557996,32.7084819 L178.557996,37.7369581 Z M195.019746,37.7369581 L189.570869,37.7369581 L189.570869,32.7084819 L195.019746,32.7084819 L195.019746,37.7369581 Z M224.988573,41.0380952 L224.988573,28.8699503 L239.723566,28.8699503 L239.723566,25.5688132 L224.988573,25.5688132 L224.988573,11.0207788 L238.188671,11.0207788 L238.188671,7.75802701 L206.876811,7.75802701 L206.876811,11.0207788 L219.885047,11.0207788 L219.885047,25.5688132 L205.150054,25.5688132 L205.150054,28.8699503 L219.885047,28.8699503 L219.885047,41.0380952 L224.988573,41.0380952 Z M233.737475,22.5363733 C234.709575,20.3100251 235.540977,17.4823068 236.23168,14.0532187 L236.23168,14.0532187 L231.511877,14.0532187 C230.974664,16.9705026 230.181635,19.7982209 229.13279,22.5363733 L229.13279,22.5363733 L233.737475,22.5363733 Z M215.74083,22.5363733 C214.717567,19.7726307 213.924538,16.9449124 213.361743,14.0532187 L213.361743,14.0532187 L208.64194,14.0532187 C209.28148,17.3031754 210.112881,20.1308936 211.136145,22.5363733 L211.136145,22.5363733 L215.74083,22.5363733 Z M277.55873,22.1525202 C275.972672,18.4419397 274.143589,14.6545886 272.07148,10.7904669 L272.07148,10.7904669 L267.505167,10.7904669 C267.70982,11.2255005 268.016799,11.8780508 268.426104,12.748118 C269.219133,14.4114816 269.80751,15.6654019 270.191234,16.5098789 C264.179561,16.9960929 257.924864,17.2264047 251.427141,17.2008145 C255.136471,14.2835306 258.219052,10.6241305 260.674884,6.22261441 L260.674884,6.22261441 L255.302751,6.22261441 C253.102735,9.62611235 249.841083,13.2727173 245.517795,17.1624292 L245.517795,17.1624292 L245.517795,20.8858048 L249.217852,20.8857165 C258.601049,20.8798896 266.103808,20.5856316 271.726129,20.0029425 C272.058689,20.7706488 272.263342,21.2696579 272.340087,21.4999698 C272.467995,21.7814621 272.55753,21.9989789 272.608693,22.1525202 L272.608693,22.1525202 L277.55873,22.1525202 Z M274.565685,40.3471596 L274.565685,24.3020978 L247.244552,24.3020978 L247.244552,40.3471596 L274.565685,40.3471596 Z M269.730765,37.0844078 L252.041099,37.0844078 L252.041099,27.5648496 L269.730765,27.5648496 L269.730765,37.0844078 Z" id="太初容器平台" fill="#2C2E33" fill-rule="nonzero"></path>
        </g>
    </g>
</svg>