<?xml version="1.0" encoding="UTF-8"?>
<svg width="260px" height="48px" viewBox="0 0 260 48" version="1.1" xmlns="http://www.w3.org/2000/svg" xmlns:xlink="http://www.w3.org/1999/xlink">
    <title>编组 20</title>
    <g id="kubeoperator" stroke="none" stroke-width="1" fill="none" fill-rule="evenodd">
        <g id="编组-20">
            <g id="Group备份">
                <g id="编组-4" transform="translate(0.004060, 0.033874)" fill="#8D8AD1" fill-rule="nonzero">
                    <path d="M39.8906241,0.0790386919 L46.5368459,11.8128971 L39.8906241,23.5490137 L39.8773315,23.5490137 L33.2377558,11.8241883 L33.2311096,11.8128971 L19.9519582,11.8128971 L26.5981801,0.0790386919 L39.8906241,0.0790386919 Z M38.9641287,1.71936187 L27.5245302,1.71936187 L22.7365148,10.1725037 L34.1396247,10.1725455 L34.6143498,10.9790577 L34.6281549,11.0029671 L39.8839331,20.2841778 L44.681184,11.8127186 L38.9641287,1.71936187 Z" id="Stroke-3"></path>
                    <path d="M13.3057363,23.4699976 L19.945312,35.1925648 L19.9519582,35.2038559 L13.3057363,46.9377143 L6.65951436,35.2038559 L6.64622193,35.2038559 L0.00664622188,23.4812889 L0.0132924438,23.4699976 L13.3057363,23.4699976 Z M12.3792124,25.1102289 L2.78484427,25.1102289 L7.57259202,33.5633707 L7.58594654,33.5635043 L13.3055753,43.6616486 L18.0962677,35.203859 L12.3792124,25.1102289 Z" id="Stroke-10"></path>
                    <path d="M39.8773315,0 L33.2377558,11.7225672 L33.2311096,11.7338584 L19.9386658,11.7338584 L13.2990901,0.0112912416 L13.3057363,0 L39.8773315,0 Z M37.0926641,1.6403516 L16.0771686,1.6403516 L20.8650502,10.0934935 L32.3047825,10.0934935 L37.0926641,1.6403516 Z" id="Stroke-12"></path>
                    <path d="M13.3057363,23.4699751 L19.945312,35.1925422 L19.9519582,35.2038335 L26.5981801,46.9376919 L13.3057363,46.9376919 L6.65951436,35.2038335 L13.2990901,23.4812663 L13.3057363,23.4699751 Z M13.3054414,26.7456594 L8.51501673,35.2037223 L14.2320721,45.2972158 L23.813323,45.2972158 L13.3054414,26.7456594 Z" id="Stroke-18"></path>
                    <path d="M31.812294,33.3797588 L39.4863535,46.9376919 L22.7507318,46.9376919 L31.812294,33.3797588 Z M31.7173218,36.4719466 L25.7658996,45.2880572 L36.6965313,45.3055934 L31.7173218,36.4719466 Z" id="三角形"></path>
                    <path d="M26.5981801,0 L33.2377558,11.7225672 L33.244402,11.7338584 L33.2377558,11.7451496 L33.2311096,11.7338584 L19.9386658,11.7338584 L13.2990901,23.4586838 L6.65951436,11.7338584 L13.2990901,0.0112912416 L13.3057363,0 L26.5981801,0 Z M25.6716705,1.6403516 L14.2318044,1.6403516 L8.51488288,11.7338451 L13.2990167,20.1820659 L19.0121267,10.0935068 L30.4595521,10.0934935 L25.6716705,1.6403516 Z" id="Stroke-20"></path>
                    <path d="M19.9386658,11.7338584 L13.2990901,23.4586838 L13.3057363,23.4699751 L19.945312,35.1925422 L19.9386658,35.2038335 L6.64622193,35.2038335 L0,23.4699751 L6.64622193,11.7338584 L19.9386658,11.7338584 Z M17.1541107,13.3741967 L7.57259202,13.3741967 L1.85553668,23.4694672 L7.57259202,33.5633707 L17.167094,33.5633707 L11.9210502,24.3015355 L11.4345239,23.474794 L17.1541107,13.3741967 Z" id="Stroke-22"></path>
                </g>
                <g id="Logo-Copy" transform="translate(6.023166, 5.809579)" fill="#423EA9">
                    <g id="Page-1" transform="translate(0.135960, 0.166482)">
                        <path d="M5.24561261,27.4376414 L15.4513894,27.4376414 L20.5542836,36.526575 L10.3486652,36.526575 L5.24560088,27.4376414 L0.14275766,18.3503518 L5.24565191,9.263167 L10.3485461,18.3503518 L15.4514011,9.26327194 L25.6572682,9.26327194 L25.6573479,9.26327194 L20.5542836,0.176087187 L30.7600722,0.176087187 L35.8629271,9.26320199 L35.8629976,9.26320199 L40.9659115,18.3503518 L30.7601427,18.3503518 L25.6572682,9.26327194 L20.5542836,0.176087187 L18.5131259,3.81096109 L20.5542156,0.176087187 L10.3485972,0.176087187 L5.24553283,9.26327194 L10.3485363,18.3503692 L9.32796727,20.1678237 L10.3485461,18.3503867 L15.4514404,27.4375715 L5.24573047,27.4375715 L5.24561261,27.4376414 Z M23.2635129,31.7011682 L25.6573479,27.4375715 L30.7600722,36.5265051 L20.5543739,36.5265051 L15.4514404,27.4375715 L25.6572288,27.4375715 L23.2635129,31.7011682 Z" id="path-2"></path>
                        <polygon id="Fill-12" points="17.8099209 23.1157154 15.237033 18.5277898 17.8099209 13.9398641 22.9556967 13.9398641 25.5285844 18.5277898 22.9556967 23.1157154"></polygon>
                    </g>
                </g>
            </g>
            <path d="M60.1326126,15.3017465 L60.1326126,12.5650932 L81.1869241,12.5650932 L81.1869241,15.3017465 L85.4325869,15.3017465 L85.4325869,9.75735809 L73.2872072,9.75735809 L73.2872072,7.51827816 L68.206332,7.51827816 L68.206332,9.75735809 L55.8869498,9.75735809 L55.8869498,15.3017465 L60.1326126,15.3017465 Z M55.7129472,21.8768225 C61.8146375,21.1186155 66.1183012,18.5359731 68.6239382,14.1288951 L68.6239382,14.1288951 L64.2390734,14.1288951 C62.5454483,16.356128 59.7034063,17.9317769 55.7129472,18.8558416 L55.7129472,18.8558416 L55.7129472,21.8768225 Z M85.6065894,21.8768225 L85.6065894,18.8558416 C81.6161304,17.8843889 78.7740884,16.3087401 77.0804633,14.1288951 L77.0804633,14.1288951 L72.6955985,14.1288951 C75.2244359,18.559667 79.5280995,21.1423095 85.6065894,21.8768225 L85.6065894,21.8768225 Z M81.7785328,39.2918886 L81.7785328,28.6296032 C83.1705534,29.1271765 84.7249764,29.5773619 86.4418018,29.9801594 L86.4418018,29.9801594 L86.4418018,26.568228 C80.4097126,24.7911805 75.839245,22.0071393 72.730399,18.2161045 L72.730399,18.2161045 L68.5891377,18.2161045 C65.433891,22.0545272 60.8634234,24.8504154 54.8777349,26.603769 L54.8777349,26.603769 L54.8777349,29.9801594 C56.5945603,29.553668 58.1605834,29.1034826 59.5758044,28.6296032 L59.5758044,28.6296032 L59.5758044,39.2918886 L81.7785328,39.2918886 Z M78.8900901,27.5278337 L62.3946461,27.5278337 C65.5498927,26.1772776 68.2991334,24.3054541 70.6423681,21.9123634 C73.0552038,24.3291481 75.8044444,26.2009715 78.8900901,27.5278337 L78.8900901,27.5278337 Z M77.6372716,36.3775306 L63.7170656,36.3775306 L63.7170656,30.4421917 L77.6372716,30.4421917 L77.6372716,36.3775306 Z M119.049884,17.3631217 L119.049884,9.01099811 L106.939305,9.01099811 L106.939305,17.3631217 L119.049884,17.3631217 Z M103.91166,17.3631217 L103.91166,9.01099811 L91.8010811,9.01099811 L91.8010811,17.3631217 L103.91166,17.3631217 Z M100.362008,15.0529598 L95.3507336,15.0529598 L95.3507336,11.3211599 L100.362008,11.3211599 L100.362008,15.0529598 Z M115.500232,15.0529598 L110.488958,15.0529598 L110.488958,11.3211599 L115.500232,11.3211599 L115.500232,15.0529598 Z M120.963912,29.0560946 L120.963912,26.2128185 C114.467816,25.7389392 110.396156,24.5068529 108.748932,22.5165596 L108.748932,22.5165596 L120.720309,22.5165596 L120.720309,19.9931521 L116.196242,19.9931521 L116.196242,18.0383997 L112.507387,18.0383997 L112.507387,19.9931521 L107.878919,19.9931521 L107.878919,17.8962359 L103.21565,17.8962359 L103.21565,19.9931521 L90.4090605,19.9931521 L90.4090605,22.5165596 L102.380438,22.5165596 C100.802814,24.6964046 96.661553,25.9521849 89.9566538,26.2839004 L89.9566538,26.2839004 L89.9566538,29.0560946 C97.5663664,28.9139308 102.763243,27.5041398 105.547284,24.8267214 C108.516928,27.4804458 113.655804,28.8902369 120.963912,29.0560946 L120.963912,29.0560946 Z M118.910682,39.2918886 L118.910682,29.8024546 L106.904505,29.8024546 L106.904505,39.2918886 L118.910682,39.2918886 Z M104.016062,39.2918886 L104.016062,29.8024546 L91.9750837,29.8024546 L91.9750837,39.2918886 L104.016062,39.2918886 Z M100.466409,36.8751039 L95.5247362,36.8751039 L95.5247362,32.2192393 L100.466409,32.2192393 L100.466409,36.8751039 Z M115.39583,36.8751039 L110.454157,36.8751039 L110.454157,32.2192393 L115.39583,32.2192393 L115.39583,36.8751039 Z M152.632381,39.2563477 L152.632381,31.1530108 L132.900489,31.1530108 L132.900489,28.9139308 L151.623166,28.9139308 L151.623166,21.8057406 L155.172819,21.8057406 L155.172819,16.403516 L142.540232,16.403516 L142.540232,14.6620094 C143.909052,14.0222722 144.999468,13.0982075 145.81148,11.8898152 L145.81148,11.8898152 L147.621107,11.8898152 C147.899511,12.8138799 148.166315,13.8327205 148.421519,14.946337 L148.421519,14.946337 L151.971171,14.946337 C151.785568,14.0696602 151.483964,13.0508196 151.066358,11.8898152 L151.066358,11.8898152 L155.868829,11.8898152 L155.868829,9.36640762 L146.994698,9.36640762 C147.1571,8.86883431 147.307902,8.32387305 147.447104,7.73152386 L147.447104,7.73152386 L143.862651,7.73152386 C143.189841,9.93506284 141.902222,11.5462526 139.999794,12.5650932 L139.999794,12.5650932 L139.999794,14.6264684 L137.807362,14.6264684 L137.807362,16.403516 L125.453179,16.403516 L125.453179,21.8057406 L128.654826,21.8057406 L128.654826,39.2563477 L152.632381,39.2563477 Z M124.931171,15.5149922 C127.622411,14.946337 129.640841,13.7497916 130.986461,11.9253561 L130.986461,11.9253561 L132.517683,11.9253561 C132.912089,13.2759123 133.190493,14.3065999 133.352896,15.0174189 L133.352896,15.0174189 L136.902548,15.0174189 C136.600944,13.7853326 136.299339,12.754645 135.997735,11.9253561 L135.997735,11.9253561 L140.452201,11.9253561 L140.452201,9.40194857 L132.343681,9.40194857 C132.529284,8.90437526 132.691686,8.359414 132.830888,7.76706482 L132.830888,7.76706482 L129.176834,7.76706482 C128.504024,9.92321586 127.088803,11.5344057 124.931171,12.6006342 L124.931171,12.6006342 L124.931171,15.5149922 Z M150.927156,21.3081673 L129.698842,21.3081673 L129.698842,19.0335464 L150.927156,19.0335464 L150.927156,21.3081673 Z M147.481905,26.4971461 L132.900489,26.4971461 L132.900489,23.7249519 L147.481905,23.7249519 L147.481905,26.4971461 Z M148.49112,36.7684811 L132.900489,36.7684811 L132.900489,33.5697954 L148.49112,33.5697954 L148.49112,36.7684811 Z M191.08695,38.6521515 L191.08695,35.7733344 L182.247619,35.7733344 L182.247619,31.721666 L189.799331,31.721666 L189.799331,28.807308 L182.247619,28.807308 L182.247619,25.4664586 L189.520927,25.4664586 L189.520927,8.93991621 L171.007053,8.93991621 L171.007053,25.4664586 L178.210759,25.4664586 L178.210759,28.807308 L170.763449,28.807308 L170.763449,31.721666 L178.210759,31.721666 L178.210759,35.7733344 L169.127825,35.7733344 L169.127825,38.6521515 L191.08695,38.6521515 Z M159.31408,37.2305134 C163.37414,36.5433884 166.912192,35.6667116 169.928237,34.600483 L169.928237,34.600483 L169.928237,31.5084203 C169.789035,31.5558082 169.568631,31.6150431 169.267027,31.686125 C168.153411,31.9704526 167.318198,32.1836983 166.76139,32.3258622 L166.76139,32.3258622 L166.76139,23.0852148 L169.510631,23.0852148 L169.510631,20.2063978 L166.76139,20.2063978 L166.76139,12.3518475 L169.719434,12.3518475 L169.719434,9.47303048 L159.557683,9.47303048 L159.557683,12.3518475 L162.72453,12.3518475 L162.72453,20.2063978 L159.766486,20.2063978 L159.766486,23.0852148 L162.72453,23.0852148 L162.72453,33.178845 C162.515727,33.202539 162.179322,33.2617739 161.715315,33.3565497 C160.6481,33.5224075 159.847688,33.6408774 159.31408,33.7119593 L159.31408,33.7119593 L159.31408,37.2305134 Z M178.210759,15.621615 L174.661107,15.621615 L174.661107,11.8187333 L178.210759,11.8187333 L178.210759,15.621615 Z M185.832072,15.621615 L182.247619,15.621615 L182.247619,11.8187333 L185.832072,11.8187333 L185.832072,15.621615 Z M178.210759,22.5521006 L174.661107,22.5521006 L174.661107,18.5359731 L178.210759,18.5359731 L178.210759,22.5521006 Z M185.832072,22.5521006 L182.247619,22.5521006 L182.247619,18.5359731 L185.832072,18.5359731 L185.832072,22.5521006 Z M212.176062,39.9316257 L212.176062,28.6651442 L225.539459,28.6651442 L225.539459,25.6086224 L212.176062,25.6086224 L212.176062,12.1386018 L224.147439,12.1386018 L224.147439,9.11762096 L195.750219,9.11762096 L195.750219,12.1386018 L207.547593,12.1386018 L207.547593,25.6086224 L194.184196,25.6086224 L194.184196,28.6651442 L207.547593,28.6651442 L207.547593,39.9316257 L212.176062,39.9316257 Z M220.110579,22.8008872 C220.992192,20.739512 221.746203,18.1213286 222.372613,14.946337 L222.372613,14.946337 L218.092149,14.946337 C217.604942,17.6474493 216.885731,20.2656327 215.934517,22.8008872 L215.934517,22.8008872 L220.110579,22.8008872 Z M203.789138,22.8008872 C202.861124,20.2419387 202.141913,17.6237553 201.631506,14.946337 L201.631506,14.946337 L197.351042,14.946337 C197.931051,17.9554709 198.685062,20.5736543 199.613076,22.8008872 L199.613076,22.8008872 L203.789138,22.8008872 Z M259.852767,22.4454777 C258.414346,19.0098524 256.755521,15.5031452 254.876293,11.9253561 L254.876293,11.9253561 L250.735032,11.9253561 C250.920635,12.3281536 251.199039,12.9323497 251.570245,13.7379446 C252.289455,15.2780525 252.823063,16.4390569 253.171068,17.2209579 C247.718988,17.6711432 242.046504,17.8843889 236.153616,17.860695 C239.517666,15.1595827 242.313308,11.7713453 244.540541,7.69598291 L244.540541,7.69598291 L239.668468,7.69598291 C237.673239,10.8472806 234.715195,14.223671 230.794337,17.825154 L230.794337,17.825154 L230.794337,21.2726263 L234.301245,21.2724203 C242.740418,21.2639075 249.494366,20.9914955 254.563089,20.4551844 C254.864693,21.1660035 255.050296,21.6280358 255.119897,21.8412815 C255.235899,22.1019152 255.3171,22.3033139 255.363501,22.4454777 L255.363501,22.4454777 L259.852767,22.4454777 Z M257.138327,39.2918886 L257.138327,24.435771 L232.36036,24.435771 L232.36036,39.2918886 L257.138327,39.2918886 Z M252.753462,36.2709077 L236.710425,36.2709077 L236.710425,27.4567518 L252.753462,27.4567518 L252.753462,36.2709077 Z" id="容器管理平台" fill="#2C2E33" fill-rule="nonzero"></path>
        </g>
    </g>
</svg>